<?xml version="1.0" standalone="no"?>
<!DOCTYPE svg PUBLIC "-//W3C//DTD SVG 20010904//EN"
 "http://www.w3.org/TR/2001/REC-SVG-20010904/DTD/svg10.dtd">
<svg version="1.0" xmlns="http://www.w3.org/2000/svg"
 width="581.000000pt" height="274.000000pt" viewBox="0 0 581.000000 274.000000"
 preserveAspectRatio="xMidYMid meet">

<g transform="translate(0.000000,274.000000) scale(0.100000,-0.100000)"
fill="#000000" stroke="none">
<path d="M1450 2606 c-434 -63 -776 -281 -1013 -646 -209 -324 -334 -810 -298
-1159 23 -215 80 -352 193 -465 98 -98 153 -120 298 -121 128 0 192 18 295 85
81 54 230 192 324 303 36 42 68 74 73 71 4 -3 8 -22 8 -42 0 -52 25 -146 59
-217 36 -76 98 -140 169 -173 50 -24 69 -27 162 -27 113 0 162 12 276 66 83
39 209 130 314 228 l88 80 11 -73 c17 -115 46 -183 106 -242 57 -57 93 -70
171 -61 95 10 240 105 428 280 l104 96 7 -179 c4 -99 11 -183 15 -185 8 -5
349 72 358 80 2 2 8 70 13 152 11 175 41 372 68 442 28 74 76 134 219 272 188
182 272 219 272 119 0 -73 -50 -325 -138 -700 -49 -206 -89 -376 -88 -377 2
-3 417 74 420 78 2 2 38 146 80 319 47 194 86 336 103 370 37 75 268 308 337
340 45 21 51 22 75 9 23 -13 26 -21 24 -65 0 -27 -24 -125 -53 -219 -99 -321
-127 -466 -118 -590 15 -176 132 -268 302 -237 127 24 271 117 489 315 l87 80
0 96 -1 96 -67 -70 c-159 -168 -259 -245 -317 -245 -98 0 -96 98 6 401 67 200
96 314 111 431 11 89 10 107 -5 166 -55 209 -233 235 -455 67 -34 -26 -133
-113 -218 -193 l-156 -145 8 49 c15 100 9 226 -12 274 -26 57 -78 107 -123
120 -49 14 -60 13 -135 -10 -127 -40 -315 -189 -511 -406 -47 -52 -85 -91 -85
-86 0 31 83 298 136 441 13 35 23 65 22 67 -6 5 -389 -73 -398 -82 -17 -18
-121 -266 -164 -397 -43 -125 -86 -307 -86 -359 0 -17 -30 -54 -107 -130 -117
-114 -129 -122 -193 -137 -124 -28 -153 79 -91 334 16 66 75 263 131 438 56
176 99 321 97 324 -6 5 -412 -78 -428 -88 -28 -17 -160 -433 -204 -641 -24
-112 -29 -124 -69 -172 -96 -112 -251 -217 -336 -229 -22 -3 -58 -1 -81 4
-161 37 -197 224 -117 614 26 131 117 445 168 585 89 240 201 458 311 603 59
77 60 80 57 135 l-3 57 -85 23 c-174 46 -314 64 -535 68 -143 2 -240 -1 -305
-10z m319 -131 c67 -17 161 -55 161 -64 0 -3 -27 -40 -61 -81 -102 -127 -178
-248 -260 -415 -122 -248 -199 -503 -249 -821 -12 -71 -23 -142 -26 -159 -6
-40 -132 -195 -216 -265 -87 -74 -149 -103 -223 -108 -143 -9 -238 108 -266
328 -26 205 44 572 167 875 91 221 185 369 328 510 109 108 196 163 311 196
77 22 258 25 334 4z"/>
<path d="M2791 2253 c-13 -38 -46 -110 -73 -161 l-48 -94 23 -19 c44 -37 128
-62 212 -63 135 -2 220 55 267 178 19 49 38 206 25 206 -4 0 -26 -10 -49 -22
-34 -18 -60 -23 -118 -23 -65 0 -84 4 -139 33 -35 17 -67 32 -70 32 -3 0 -17
-30 -30 -67z"/>
</g>
</svg>
